<svg xmlns="http://www.w3.org/2000/svg" xmlns:xlink="http://www.w3.org/1999/xlink" width="320" zoomAndPan="magnify" viewBox="3 4 217 88" height="132" preserveAspectRatio="xMidYMid meet" version="1.0"><defs><g/><clipPath id="6421f495e4"><path d="M 3 0.121094 L 30 0.121094 L 30 43 L 3 43 Z M 3 0.121094 " clip-rule="nonzero"/></clipPath><clipPath id="ab52e1467a"><path d="M 37 0.121094 L 43 0.121094 L 43 43 L 37 43 Z M 37 0.121094 " clip-rule="nonzero"/></clipPath><clipPath id="17dc33750c"><rect x="0" width="127" y="0" height="59"/></clipPath><clipPath id="a59e016ae3"><path d="M 12.164062 9.050781 L 93.164062 9.050781 L 93.164062 90.050781 L 12.164062 90.050781 Z M 12.164062 9.050781 " clip-rule="nonzero"/></clipPath><clipPath id="d9420c5bdc"><path d="M 4 0.160156 L 43 0.160156 L 43 43 L 4 43 Z M 4 0.160156 " clip-rule="nonzero"/></clipPath><clipPath id="8263ab84d2"><rect x="0" width="75" y="0" height="59"/></clipPath><clipPath id="c61d20fd0a"><path d="M 66.390625 27.484375 L 79.890625 27.484375 L 79.890625 34.234375 L 66.390625 34.234375 Z M 66.390625 27.484375 " clip-rule="nonzero"/></clipPath></defs><rect x="-24" width="288" fill="#ffffff" y="-9.9" height="118.799995" fill-opacity="1"/><rect x="-24" width="288" fill="#ffffff" y="-9.9" height="118.799995" fill-opacity="1"/><g transform="matrix(1, 0, 0, 1, 93, 21)"><g clip-path="url(#17dc33750c)"><g clip-path="url(#6421f495e4)"><g fill="#000000" fill-opacity="1"><g transform="translate(1.088695, 42.271582)"><g><path d="M 28.09375 -41.390625 L 28.09375 0 L 23.359375 0 L 23.359375 -3.8125 C 22.773438 -2.8125 21.800781 -1.816406 20.4375 -0.828125 C 19.070312 0.148438 17.269531 0.640625 15.03125 0.640625 C 12.601562 0.640625 10.40625 -0.00390625 8.4375 -1.296875 C 6.46875 -2.585938 4.914062 -4.425781 3.78125 -6.8125 C 2.644531 -9.207031 2.078125 -11.984375 2.078125 -15.140625 C 2.078125 -18.304688 2.609375 -21.050781 3.671875 -23.375 C 4.734375 -25.707031 6.234375 -27.5 8.171875 -28.75 C 10.117188 -30.007812 12.382812 -30.640625 14.96875 -30.640625 C 16.863281 -30.640625 18.515625 -30.195312 19.921875 -29.3125 C 21.328125 -28.425781 22.359375 -27.5 23.015625 -26.53125 L 23.015625 -41.390625 Z M 7.28125 -14.96875 C 7.28125 -12.5 7.644531 -10.40625 8.375 -8.6875 C 9.113281 -6.976562 10.109375 -5.691406 11.359375 -4.828125 C 12.609375 -3.960938 13.988281 -3.53125 15.5 -3.53125 C 17.84375 -3.53125 19.753906 -4.472656 21.234375 -6.359375 C 22.722656 -8.242188 23.46875 -10.960938 23.46875 -14.515625 C 23.46875 -18.128906 22.753906 -21.023438 21.328125 -23.203125 C 19.898438 -25.390625 17.878906 -26.484375 15.265625 -26.484375 C 12.753906 -26.484375 10.796875 -25.457031 9.390625 -23.40625 C 7.984375 -21.363281 7.28125 -18.550781 7.28125 -14.96875 Z M 7.28125 -14.96875 "/></g></g></g></g><g clip-path="url(#ab52e1467a)"><g fill="#000000" fill-opacity="1"><g transform="translate(33.225662, 42.271582)"><g><path d="M 8.953125 -35.609375 L 3.875 -35.609375 L 3.875 -41.390625 L 8.953125 -41.390625 Z M 8.953125 0 L 3.875 0 L 3.875 -29.953125 L 8.953125 -29.953125 Z M 8.953125 0 "/></g></g></g></g><g fill="#000000" fill-opacity="1"><g transform="translate(46.057331, 42.271582)"><g><path d="M 8.90625 -10.75 C 8.90625 -8.4375 9.453125 -6.679688 10.546875 -5.484375 C 11.648438 -4.296875 13.257812 -3.703125 15.375 -3.703125 C 16.800781 -3.703125 18.175781 -4.113281 19.5 -4.9375 C 20.832031 -5.769531 21.789062 -6.9375 22.375 -8.4375 C 22.832031 -9.550781 23.0625 -11.25 23.0625 -13.53125 L 23.0625 -29.953125 L 28.15625 -29.953125 L 28.15625 0 L 23.59375 0 L 23.59375 -4.390625 C 21.195312 -1.003906 18.015625 0.6875 14.046875 0.6875 C 12.429688 0.6875 10.789062 0.351562 9.125 -0.3125 C 7.46875 -0.988281 6.179688 -2.078125 5.265625 -3.578125 C 4.722656 -4.460938 4.34375 -5.445312 4.125 -6.53125 C 3.914062 -7.613281 3.8125 -8.925781 3.8125 -10.46875 L 3.8125 -29.953125 L 8.90625 -29.953125 Z M 8.90625 -10.75 "/></g></g></g><g fill="#000000" fill-opacity="1"><g transform="translate(78.194298, 42.271582)"><g><path d="M 17.453125 -30.640625 C 19.617188 -30.640625 21.40625 -30.1875 22.8125 -29.28125 C 24.21875 -28.375 25.226562 -27.070312 25.84375 -25.375 C 27.039062 -27.070312 28.359375 -28.375 29.796875 -29.28125 C 31.242188 -30.1875 33.007812 -30.640625 35.09375 -30.640625 C 38.09375 -30.640625 40.398438 -29.78125 42.015625 -28.0625 C 43.640625 -26.351562 44.453125 -23.914062 44.453125 -20.75 L 44.453125 0 L 39.375 0 L 39.375 -19.25 C 39.375 -21.675781 38.945312 -23.445312 38.09375 -24.5625 C 37.25 -25.6875 35.863281 -26.25 33.9375 -26.25 C 31.507812 -26.25 29.6875 -25.425781 28.46875 -23.78125 C 27.257812 -22.144531 26.65625 -20.09375 26.65625 -17.625 L 26.65625 0 L 21.5625 0 L 21.5625 -19.71875 C 21.5625 -21.914062 21.128906 -23.550781 20.265625 -24.625 C 19.398438 -25.707031 18.0625 -26.25 16.25 -26.25 C 14.78125 -26.25 13.398438 -25.832031 12.109375 -25 C 10.816406 -24.175781 9.921875 -22.953125 9.421875 -21.328125 C 9.035156 -20.171875 8.84375 -18.421875 8.84375 -16.078125 L 8.84375 0 L 3.75 0 L 3.75 -29.953125 L 8.328125 -29.953125 L 8.328125 -25.78125 C 9.398438 -27.4375 10.726562 -28.660156 12.3125 -29.453125 C 13.894531 -30.242188 15.609375 -30.640625 17.453125 -30.640625 Z M 17.453125 -30.640625 "/></g></g></g></g></g><g clip-path="url(#a59e016ae3)"><path fill="#000000" d="M 83.515625 9.050781 L 21.816406 9.050781 C 21.179688 9.054688 20.554688 9.117188 19.933594 9.242188 C 19.3125 9.363281 18.710938 9.546875 18.125 9.792969 C 17.539062 10.035156 16.984375 10.332031 16.457031 10.683594 C 15.929688 11.035156 15.445312 11.4375 14.996094 11.882812 C 14.546875 12.332031 14.148438 12.820312 13.796875 13.34375 C 13.445312 13.871094 13.144531 14.425781 12.902344 15.011719 C 12.660156 15.597656 12.476562 16.199219 12.351562 16.820312 C 12.226562 17.441406 12.164062 18.070312 12.164062 18.703125 L 12.164062 80.402344 C 12.164062 81.035156 12.226562 81.664062 12.351562 82.285156 C 12.476562 82.90625 12.660156 83.507812 12.902344 84.09375 C 13.144531 84.679688 13.445312 85.234375 13.796875 85.761719 C 14.148438 86.285156 14.546875 86.773438 14.996094 87.222656 C 15.445312 87.667969 15.929688 88.070312 16.457031 88.421875 C 16.984375 88.773438 17.539062 89.070312 18.125 89.3125 C 18.710938 89.558594 19.3125 89.742188 19.933594 89.863281 C 20.554688 89.988281 21.179688 90.050781 21.816406 90.050781 L 83.515625 90.050781 C 84.148438 90.050781 84.773438 89.988281 85.394531 89.863281 C 86.015625 89.742188 86.621094 89.558594 87.203125 89.3125 C 87.789062 89.070312 88.34375 88.773438 88.871094 88.421875 C 89.398438 88.070312 89.886719 87.667969 90.332031 87.222656 C 90.78125 86.773438 91.179688 86.285156 91.53125 85.761719 C 91.886719 85.234375 92.183594 84.679688 92.425781 84.09375 C 92.667969 83.507812 92.851562 82.90625 92.976562 82.285156 C 93.101562 81.664062 93.164062 81.035156 93.164062 80.402344 L 93.164062 18.703125 C 93.164062 18.070312 93.101562 17.441406 92.976562 16.820312 C 92.851562 16.199219 92.667969 15.597656 92.425781 15.011719 C 92.183594 14.425781 91.886719 13.871094 91.53125 13.34375 C 91.179688 12.820312 90.78125 12.332031 90.332031 11.882812 C 89.886719 11.4375 89.398438 11.035156 88.871094 10.683594 C 88.34375 10.332031 87.789062 10.035156 87.203125 9.792969 C 86.621094 9.546875 86.015625 9.363281 85.394531 9.242188 C 84.773438 9.117188 84.148438 9.054688 83.515625 9.050781 Z M 91.921875 80.402344 C 91.917969 80.953125 91.863281 81.5 91.757812 82.042969 C 91.648438 82.582031 91.488281 83.105469 91.277344 83.617188 C 91.066406 84.125 90.804688 84.609375 90.5 85.070312 C 90.191406 85.527344 89.84375 85.953125 89.453125 86.339844 C 89.0625 86.730469 88.640625 87.082031 88.179688 87.386719 C 87.722656 87.695312 87.238281 87.953125 86.726562 88.164062 C 86.21875 88.375 85.695312 88.535156 85.152344 88.644531 C 84.613281 88.753906 84.066406 88.808594 83.515625 88.808594 L 21.816406 88.808594 C 21.261719 88.808594 20.71875 88.753906 20.175781 88.644531 C 19.636719 88.535156 19.109375 88.375 18.601562 88.164062 C 18.089844 87.953125 17.605469 87.695312 17.148438 87.386719 C 16.691406 87.082031 16.265625 86.730469 15.875 86.339844 C 15.484375 85.953125 15.136719 85.527344 14.832031 85.070312 C 14.523438 84.609375 14.265625 84.125 14.054688 83.617188 C 13.839844 83.105469 13.679688 82.582031 13.574219 82.042969 C 13.464844 81.5 13.410156 80.953125 13.410156 80.402344 L 13.410156 18.703125 C 13.410156 18.152344 13.464844 17.605469 13.574219 17.0625 C 13.679688 16.523438 13.839844 16 14.054688 15.488281 C 14.265625 14.980469 14.523438 14.496094 14.832031 14.035156 C 15.136719 13.578125 15.484375 13.152344 15.875 12.761719 C 16.265625 12.375 16.691406 12.023438 17.148438 11.71875 C 17.605469 11.410156 18.089844 11.152344 18.601562 10.941406 C 19.109375 10.730469 19.636719 10.570312 20.175781 10.460938 C 20.71875 10.351562 21.261719 10.296875 21.816406 10.296875 L 83.515625 10.296875 C 84.066406 10.296875 84.613281 10.351562 85.152344 10.460938 C 85.695312 10.570312 86.21875 10.730469 86.726562 10.941406 C 87.238281 11.152344 87.722656 11.410156 88.179688 11.71875 C 88.640625 12.023438 89.0625 12.375 89.453125 12.761719 C 89.84375 13.152344 90.191406 13.578125 90.5 14.035156 C 90.804688 14.496094 91.066406 14.980469 91.277344 15.488281 C 91.488281 16 91.648438 16.523438 91.757812 17.0625 C 91.863281 17.605469 91.917969 18.152344 91.921875 18.703125 Z M 91.921875 80.402344 " fill-opacity="1" fill-rule="nonzero"/></g><g transform="matrix(1, 0, 0, 1, 15, 26)"><g clip-path="url(#8263ab84d2)"><g clip-path="url(#d9420c5bdc)"><g fill="#000000" fill-opacity="1"><g transform="translate(0.645678, 42.386206)"><g><path d="M 31.984375 -40.078125 C 33.722656 -39.347656 35.171875 -38.054688 36.328125 -36.203125 C 37.484375 -34.359375 38.0625 -32.222656 38.0625 -29.796875 C 38.0625 -26.703125 37.101562 -24.101562 35.1875 -22 C 33.28125 -19.90625 30.59375 -18.644531 27.125 -18.21875 C 28.632812 -17.175781 29.78125 -16.316406 30.5625 -15.640625 C 31.351562 -14.972656 32.222656 -14.03125 33.171875 -12.8125 C 34.117188 -11.59375 35.285156 -9.867188 36.671875 -7.640625 L 41.421875 0 L 31.40625 0 L 24.703125 -10.0625 C 23.191406 -12.300781 22.019531 -13.890625 21.1875 -14.828125 C 20.363281 -15.773438 19.488281 -16.421875 18.5625 -16.765625 C 17.632812 -17.117188 16.328125 -17.296875 14.640625 -17.296875 L 12.546875 -17.296875 L 12.546875 0 L 4.21875 0 L 4.21875 -41.421875 L 22.328125 -41.421875 C 24.296875 -41.421875 26.078125 -41.332031 27.671875 -41.15625 C 29.273438 -40.976562 30.710938 -40.617188 31.984375 -40.078125 Z M 26.09375 -24.359375 C 27.09375 -24.660156 27.898438 -25.234375 28.515625 -26.078125 C 29.128906 -26.929688 29.4375 -27.992188 29.4375 -29.265625 C 29.4375 -31.460938 28.492188 -32.988281 26.609375 -33.84375 C 26.109375 -34.070312 25.488281 -34.222656 24.75 -34.296875 C 24.019531 -34.378906 22.769531 -34.421875 21 -34.421875 L 12.546875 -34.421875 L 12.546875 -23.890625 L 19.890625 -23.890625 C 22.898438 -23.890625 24.96875 -24.046875 26.09375 -24.359375 Z M 26.09375 -24.359375 "/></g></g></g></g><g fill="#000000" fill-opacity="1"><g transform="translate(42.410744, 42.386206)"><g><path d="M 15.84375 -30.65625 C 19.664062 -30.65625 22.5 -30.160156 24.34375 -29.171875 C 26.195312 -28.191406 27.363281 -26.898438 27.84375 -25.296875 C 28.332031 -23.703125 28.554688 -21.59375 28.515625 -18.96875 L 28.453125 -10.234375 C 28.421875 -7.492188 28.519531 -5.503906 28.75 -4.265625 C 28.976562 -3.035156 29.457031 -1.613281 30.1875 0 L 22.390625 0 C 22.191406 -0.425781 21.84375 -1.523438 21.34375 -3.296875 C 19.914062 -1.910156 18.441406 -0.898438 16.921875 -0.265625 C 15.398438 0.367188 13.769531 0.6875 12.03125 0.6875 C 9.0625 0.6875 6.660156 -0.128906 4.828125 -1.765625 C 2.992188 -3.398438 2.078125 -5.53125 2.078125 -8.15625 C 2.078125 -10.351562 2.625 -12.097656 3.71875 -13.390625 C 4.820312 -14.679688 6.164062 -15.613281 7.75 -16.1875 C 9.332031 -16.769531 11.203125 -17.273438 13.359375 -17.703125 C 16.679688 -18.316406 19.128906 -18.929688 20.703125 -19.546875 L 20.703125 -20.828125 C 20.703125 -22.140625 20.316406 -23.09375 19.546875 -23.6875 C 18.773438 -24.28125 17.367188 -24.578125 15.328125 -24.578125 C 13.742188 -24.578125 12.566406 -24.257812 11.796875 -23.625 C 11.023438 -22.988281 10.445312 -22.054688 10.0625 -20.828125 L 2.890625 -22.15625 C 3.660156 -25.082031 5.046875 -27.226562 7.046875 -28.59375 C 9.054688 -29.96875 11.988281 -30.65625 15.84375 -30.65625 Z M 15.734375 -13.125 L 14.40625 -12.84375 C 11.46875 -12.226562 10 -10.957031 10 -9.03125 C 10 -7.863281 10.414062 -6.882812 11.25 -6.09375 C 12.082031 -5.3125 13.132812 -4.921875 14.40625 -4.921875 C 15.445312 -4.921875 16.488281 -5.1875 17.53125 -5.71875 C 18.570312 -6.257812 19.378906 -6.972656 19.953125 -7.859375 C 20.453125 -8.671875 20.703125 -10.0625 20.703125 -12.03125 L 20.703125 -14.40625 C 19.203125 -13.9375 17.546875 -13.507812 15.734375 -13.125 Z M 15.734375 -13.125 "/></g></g></g></g></g><g clip-path="url(#c61d20fd0a)"><path fill="#ff0000" d="M 73.035156 27.511719 C 69.394531 27.511719 66.441406 30.441406 66.394531 34.070312 C 66.394531 34.097656 66.394531 34.125 66.394531 34.152344 C 66.394531 34.265625 66.398438 34.375 66.402344 34.484375 L 79.667969 34.484375 C 79.671875 34.375 79.675781 34.265625 79.675781 34.152344 C 79.675781 34.125 79.675781 34.097656 79.675781 34.070312 C 79.628906 30.441406 76.675781 27.511719 73.035156 27.511719 Z M 73.035156 27.511719 " fill-opacity="1" fill-rule="nonzero"/></g></svg>